<svg width="133" height="32" viewBox="0 0 133 32" fill="none" xmlns="http://www.w3.org/2000/svg">
<path d="M128.314 11.8622C128.238 11.0958 127.913 10.5004 127.34 10.076C126.767 9.65162 125.989 9.43943 125.006 9.43943C124.338 9.43943 123.774 9.53444 123.314 9.72447C122.854 9.90816 122.502 10.1647 122.256 10.4941C122.017 10.8234 121.897 11.1972 121.897 11.6152C121.884 11.9636 121.957 12.2676 122.114 12.5273C122.278 12.787 122.502 13.0119 122.785 13.2019C123.069 13.3856 123.396 13.5471 123.768 13.6865C124.14 13.8195 124.537 13.9335 124.959 14.0285L126.698 14.4466C127.542 14.6366 128.317 14.8899 129.022 15.2067C129.728 15.5234 130.339 15.9129 130.856 16.3753C131.372 16.8377 131.772 17.3824 132.056 18.0095C132.346 18.6366 132.494 19.3555 132.5 20.1663C132.494 21.3571 132.191 22.3895 131.593 23.2637C131.001 24.1314 130.144 24.806 129.022 25.2874C127.907 25.7625 126.562 26 124.987 26C123.425 26 122.064 25.7593 120.905 25.2779C119.752 24.7965 118.851 24.0839 118.202 23.1401C117.559 22.19 117.222 21.015 117.191 19.6152H121.15C121.194 20.2676 121.38 20.8124 121.708 21.2494C122.042 21.6801 122.486 22.0063 123.04 22.228C123.601 22.4434 124.234 22.5511 124.94 22.5511C125.633 22.5511 126.234 22.4497 126.745 22.247C127.261 22.0443 127.661 21.7625 127.945 21.4014C128.228 21.0404 128.37 20.6255 128.37 20.1568C128.37 19.7197 128.241 19.3523 127.983 19.0546C127.731 18.7569 127.359 18.5036 126.868 18.2945C126.383 18.0855 125.787 17.8955 125.082 17.7245L122.974 17.1924C121.342 16.7933 120.054 16.1694 119.109 15.3207C118.164 14.4719 117.695 13.3286 117.701 11.8907C117.695 10.7126 118.007 9.68329 118.637 8.80285C119.273 7.92241 120.145 7.23516 121.254 6.74109C122.363 6.24703 123.623 6 125.034 6C126.471 6 127.724 6.24703 128.795 6.74109C129.873 7.23516 130.711 7.92241 131.309 8.80285C131.908 9.68329 132.216 10.7031 132.235 11.8622H128.314Z" fill="white"/>
<path d="M114.98 6.26605V25.7245H110.888V6.26605H114.98Z" fill="white"/>
<path d="M93.9563 25.7245V6.26605H101.592C103.054 6.26605 104.301 6.52892 105.334 7.05465C106.374 7.57405 107.164 8.31197 107.706 9.26843C108.254 10.2185 108.528 11.3365 108.528 12.6223C108.528 13.9145 108.251 15.0261 107.697 15.9573C107.142 16.882 106.339 17.5915 105.287 18.0855C104.241 18.5796 102.975 18.8266 101.488 18.8266H96.3755V15.5202H100.827C101.608 15.5202 102.257 15.4125 102.773 15.1972C103.29 14.9818 103.674 14.6588 103.926 14.228C104.185 13.7973 104.314 13.2621 104.314 12.6223C104.314 11.9763 104.185 11.4315 103.926 10.9881C103.674 10.5448 103.287 10.209 102.764 9.98102C102.247 9.74665 101.595 9.62947 100.808 9.62947H98.0482V25.7245H93.9563ZM104.408 16.8694L109.218 25.7245H104.701L99.995 16.8694H104.408Z" fill="white"/>
<path d="M91.1217 6.26605V25.7245H87.0298V6.26605H91.1217Z" fill="white"/>
<path d="M80.6236 11.8622C80.548 11.0958 80.2235 10.5004 79.6502 10.076C79.0769 9.65162 78.2988 9.43943 77.316 9.43943C76.6482 9.43943 76.0844 9.53444 75.6244 9.72447C75.1645 9.90816 74.8117 10.1647 74.566 10.4941C74.3266 10.8234 74.2069 11.1972 74.2069 11.6152C74.1943 11.9636 74.2668 12.2676 74.4243 12.5273C74.5881 12.787 74.8117 13.0119 75.0952 13.2019C75.3787 13.3856 75.7063 13.5471 76.0781 13.6865C76.4498 13.8195 76.8467 13.9335 77.2688 14.0285L79.0076 14.4466C79.8518 14.6366 80.6267 14.8899 81.3323 15.2067C82.038 15.5234 82.6491 15.9129 83.1657 16.3753C83.6823 16.8377 84.0823 17.3824 84.3659 18.0095C84.6557 18.6366 84.8037 19.3555 84.81 20.1663C84.8037 21.3571 84.5013 22.3895 83.9028 23.2637C83.3106 24.1314 82.4538 24.806 81.3323 25.2874C80.2172 25.7625 78.8722 26 77.2971 26C75.7347 26 74.3739 25.7593 73.2146 25.2779C72.0617 24.7965 71.1608 24.0839 70.5119 23.1401C69.8693 22.19 69.5322 21.015 69.5007 19.6152H73.4604C73.5045 20.2676 73.6903 20.8124 74.0179 21.2494C74.3518 21.6801 74.796 22.0063 75.3504 22.228C75.9111 22.4434 76.5443 22.5511 77.2499 22.5511C77.9429 22.5511 78.5445 22.4497 79.0549 22.247C79.5715 22.0443 79.9715 21.7625 80.255 21.4014C80.5385 21.0404 80.6803 20.6255 80.6803 20.1568C80.6803 19.7197 80.5511 19.3523 80.2928 19.0546C80.0408 18.7569 79.6691 18.5036 79.1777 18.2945C78.6926 18.0855 78.0972 17.8955 77.3916 17.7245L75.2842 17.1924C73.6525 16.7933 72.3641 16.1694 71.4191 15.3207C70.4741 14.4719 70.0047 13.3286 70.011 11.8907C70.0047 10.7126 70.3166 9.68329 70.9466 8.80285C71.5829 7.92241 72.4555 7.23516 73.5643 6.74109C74.6731 6.24703 75.9332 6 77.3444 6C78.7808 6 80.0345 6.24703 81.1055 6.74109C82.1829 7.23516 83.0208 7.92241 83.6193 8.80285C84.2178 9.68329 84.5265 10.7031 84.5454 11.8622H80.6236Z" fill="white"/>
<path d="M67.6254 15.9952C67.6254 18.1172 67.2254 19.9224 66.4253 21.4109C65.6314 22.8994 64.5478 24.0364 63.1744 24.8218C61.8073 25.6009 60.27 25.9905 58.5627 25.9905C56.8428 25.9905 55.2993 25.5978 53.9321 24.8123C52.565 24.0269 51.4845 22.8899 50.6907 21.4014C49.8969 19.9129 49.5 18.1108 49.5 15.9952C49.5 13.8733 49.8969 12.0681 50.6907 10.5796C51.4845 9.09105 52.565 7.95724 53.9321 7.17815C55.2993 6.39272 56.8428 6 58.5627 6C60.27 6 61.8073 6.39272 63.1744 7.17815C64.5478 7.95724 65.6314 9.09105 66.4253 10.5796C67.2254 12.0681 67.6254 13.8733 67.6254 15.9952ZM63.4768 15.9952C63.4768 14.6207 63.272 13.4616 62.8625 12.5178C62.4593 11.574 61.8892 10.8583 61.1521 10.3705C60.4149 9.88282 59.5518 9.63896 58.5627 9.63896C57.5736 9.63896 56.7105 9.88282 55.9734 10.3705C55.2363 10.8583 54.6629 11.574 54.2534 12.5178C53.8502 13.4616 53.6486 14.6207 53.6486 15.9952C53.6486 17.3698 53.8502 18.5289 54.2534 19.4727C54.6629 20.4165 55.2363 21.1322 55.9734 21.62C56.7105 22.1077 57.5736 22.3515 58.5627 22.3515C59.5518 22.3515 60.4149 22.1077 61.1521 21.62C61.8892 21.1322 62.4593 20.4165 62.8625 19.4727C63.272 18.5289 63.4768 17.3698 63.4768 15.9952Z" fill="white"/>
<path d="M1.17698 30.1675L19.7296 1.2823C20.1186 0.676616 21.0009 0.668007 21.4017 1.26599L40.4516 29.6897C40.9736 30.4685 40.2333 31.4728 39.335 31.2047L35.2979 30L32.323 29.1123C32.0812 29.0401 31.8756 28.8792 31.7475 28.6618L29.7748 25.3146C29.5295 24.8984 28.8951 25.0376 28.8466 25.5182L28.6747 27.2189C28.6283 27.6774 28.2747 28.0449 27.8183 28.1088L2.15691 31.6983C1.3102 31.8167 0.714948 30.8869 1.17698 30.1675Z" fill="white"/>
</svg>
